<svg width="16" height="16" viewBox="0 0 16 16" fill="none" xmlns="http://www.w3.org/2000/svg">
<path d="M6.17435 16C5.70054 16 5.2978 15.7902 4.96613 15.3706L0.36424 9.5507C0.23394 9.3926 0.13918 9.2376 0.0799601 9.0855C0.0266501 8.9335 0 8.7754 0 8.6112C0 8.2463 0.11845 7.94527 0.35536 7.7081C0.59226 7.47092 0.89136 7.35234 1.25264 7.35234C1.6613 7.35234 2.00481 7.53174 2.28318 7.89054L6.13881 12.9076L13.6635 0.66591C13.8175 0.42265 13.9774 0.25238 14.1433 0.15507C14.3091 0.0516901 14.5164 0 14.7651 0C15.1264 0 15.4225 0.11555 15.6535 0.34664C15.8845 0.57773 16 0.87267 16 1.23147C16 1.37742 15.9763 1.52338 15.9289 1.66933C15.8815 1.81528 15.8075 1.96731 15.7068 2.12543L7.39145 15.3341C7.10716 15.778 6.70146 16 6.17435 16Z" fill="#007AFF"/>
</svg>
