<svg width="24" height="24" viewBox="0 0 24 24" fill="none"
  xmlns="http://www.w3.org/2000/svg">
  <path fill-rule="evenodd" clip-rule="evenodd" d="M11.9979 3C16.9673 3 20.9959 6.66228 20.9959 11.1799C20.9959 15.6976 16.9673 19.3599 11.9979 19.3599C11.236 19.3599 10.4963 19.2738 9.78974 19.1117C9.65609 19.0811 9.50434 19.2212 9.25101 19.4552C8.94465 19.7382 8.48973 20.1584 7.73859 20.5797C6.77892 21.1179 5.44929 21.0712 5.22426 20.9768C5.00852 20.8863 5.17458 20.7064 5.46702 20.3896C5.66933 20.1705 5.93214 19.8858 6.17086 19.5199C6.75463 18.625 6.51341 17.5596 6.25151 17.3678C4.20354 15.8685 3 13.7565 3 11.1799C3 6.66228 7.02851 3 11.9979 3ZM7.49896 12.5558C8.24438 12.5558 8.84865 11.9515 8.84865 11.2061C8.84865 10.4607 8.24438 9.85642 7.49896 9.85642C6.75355 9.85642 6.14927 10.4607 6.14927 11.2061C6.14927 11.9515 6.75355 12.5558 7.49896 12.5558ZM11.9979 12.5558C12.7433 12.5558 13.3476 11.9515 13.3476 11.2061C13.3476 10.4607 12.7433 9.85642 11.9979 9.85642C11.2525 9.85642 10.6482 10.4607 10.6482 11.2061C10.6482 11.9515 11.2525 12.5558 11.9979 12.5558ZM17.8466 11.2061C17.8466 11.9515 17.2423 12.5558 16.4969 12.5558C15.7515 12.5558 15.1472 11.9515 15.1472 11.2061C15.1472 10.4607 15.7515 9.85642 16.4969 9.85642C17.2423 9.85642 17.8466 10.4607 17.8466 11.2061Z" fill="white"></path>
</svg>