<svg width="24" height="24" viewBox="0 0 24 24" fill="none"
  xmlns="http://www.w3.org/2000/svg">
  <path fill-rule="evenodd" clip-rule="evenodd" d="M12.0017 21.8571C17.4456 21.8571 21.8588 17.4439 21.8588 12C21.8588 6.55602 17.4456 2.14282 12.0017 2.14282C6.55772 2.14282 2.14453 6.55602 2.14453 12C2.14453 17.4439 6.55772 21.8571 12.0017 21.8571ZM15.4308 9.85711C15.4308 11.9873 13.8958 13.7143 12.0022 13.7143C10.1087 13.7143 8.57366 11.9873 8.57366 9.85711C8.57366 7.72687 10.1087 5.99997 12.0022 5.99997C13.8958 5.99997 15.4308 7.72687 15.4308 9.85711ZM17.2954 16.8916C17.6191 17.0952 17.7809 17.1969 17.8878 17.424C17.9649 17.5878 17.9828 17.8864 17.9259 18.0583C17.8471 18.2965 17.6978 18.4177 17.3991 18.66C15.9257 19.8553 14.0479 20.5715 12.0028 20.5715C9.95769 20.5715 8.07988 19.8553 6.6065 18.66L6.60649 18.66C6.30782 18.4177 6.15848 18.2965 6.07964 18.0583C6.02274 17.8864 6.04071 17.5878 6.11781 17.424C6.22466 17.1969 6.38651 17.0952 6.7102 16.8916C8.16752 15.9752 10.0054 15.4286 12.0028 15.4286C14.0002 15.4286 15.8381 15.9752 17.2954 16.8916Z" fill="white"></path>
</svg>