<svg width="24" height="24" viewBox="0 0 24 24" fill="none"
  xmlns="http://www.w3.org/2000/svg">
  <path d="M12.1359 19.3996C11.9517 19.2154 11.8597 18.981 11.8597 18.6964V15.4989C8.8843 15.4989 6.31055 16.3413 4.87026 19.0564C4.6509 19.4613 4.3024 19.6758 3.84068 19.6758C3.24689 19.6758 2.97852 19.0647 2.97852 18.5541C2.97852 15.4543 3.6463 12.9607 5.03767 11.2132C5.74079 10.3371 6.63644 9.66741 7.72461 9.20424C9.03416 8.64968 10.4509 8.50949 11.8597 8.50949V5.34542C11.8597 4.77909 12.2939 4.32422 12.8641 4.32422C13.3188 4.32422 13.6801 4.62017 13.9941 4.91853L20.5985 11.096C20.7603 11.2467 20.8719 11.4001 20.9333 11.5564C21.0536 11.8626 21.0586 12.1163 20.9333 12.4353C20.8719 12.5915 20.7603 12.745 20.5985 12.8956L13.9941 19.1317C13.7932 19.3214 13.6007 19.4581 13.4166 19.5419C13.0074 19.7464 12.4756 19.7292 12.1359 19.3996Z" fill="white"></path>
</svg>