<svg width="24" height="24" viewBox="0 0 24 24" fill="none"
  xmlns="http://www.w3.org/2000/svg">
  <path fill-rule="evenodd" clip-rule="evenodd" d="M12.1142 2.0977C12.575 0.818706 14.2959 0.318437 15.3395 1.3256L18.6605 4.53082C19.2955 5.1437 19.5258 6.06293 19.236 6.9022L18.8866 7.91373C18.884 7.92143 18.8831 7.92614 18.8829 7.92824C18.8842 7.93133 18.8895 7.94166 18.9042 7.95401C18.9216 7.96852 18.942 7.97721 18.9602 7.97986C18.974 7.98187 18.9946 7.98207 19.027 7.96641C19.7429 7.62098 20.6098 7.75207 21.1863 8.3084L20.5613 8.95599L21.1863 8.3084L21.5538 8.66317C22.5889 9.66212 22.5889 11.2954 21.5538 12.2944L15.9685 17.6849C16.1465 18.3112 15.9821 19.0118 15.4754 19.5009L14.4342 20.5058C13.5104 21.3973 12.0255 21.3974 11.1017 20.5058L10.4967 19.9219C10.2343 19.6687 9.63915 19.6796 9.32087 20.1175C8.62968 21.0685 7.68736 22.0763 6.57353 22.575C5.99999 22.8318 5.3546 22.9649 4.67395 22.8557C3.98991 22.7459 3.35042 22.4042 2.77169 21.8456C2.19414 21.2882 1.83045 20.6625 1.71297 19.9805C1.59582 19.3005 1.73976 18.6592 2.00996 18.0971C2.53194 17.0111 3.58045 16.101 4.55996 15.4378C4.76581 15.2985 4.88908 15.0856 4.91963 14.8796C4.94883 14.6829 4.89398 14.5145 4.76498 14.39L4.16002 13.8062C3.2183 12.8973 3.2183 11.41 4.16002 10.5011L5.20126 9.49621C5.70675 9.00835 6.42301 8.85734 7.05897 9.04319L9.36623 6.81639C10.6026 5.62312 11.544 3.68021 12.1142 2.0977ZM8.51058 10.1438L14.8504 16.2625L20.3038 10.9992C20.6056 10.708 20.6056 10.2495 20.3038 9.95835L19.9362 9.60357C19.9244 9.59216 19.9058 9.58155 19.8804 9.57757C19.8549 9.57358 19.8301 9.5775 19.8093 9.58752C18.3841 10.2753 16.6146 8.97827 17.1852 7.32612L17.5346 6.31458C17.5916 6.14959 17.551 5.96164 17.4105 5.826L14.0895 2.62077C14.0727 2.60457 14.0309 2.57893 13.9481 2.59979C13.8615 2.6216 13.82 2.67338 13.8076 2.70783C13.2097 4.36738 12.1545 6.62693 10.6162 8.11156L8.51058 10.1438ZM18.8828 7.92938C18.8828 7.92957 18.8828 7.92956 18.8828 7.92935L18.8828 7.92938ZM6.52043 10.7663C6.48823 10.7663 6.46529 10.7779 6.45127 10.7914L5.41003 11.7963C5.20163 11.9974 5.20163 12.3099 5.41003 12.511L6.01499 13.0949C7.22803 14.2656 6.77767 16.1101 5.5691 16.9283C4.67021 17.5369 3.94468 18.2269 3.63227 18.8769C3.48527 19.1827 3.44693 19.4432 3.48684 19.6749C3.52642 19.9047 3.65912 20.2005 4.0217 20.5505C4.38312 20.8993 4.69851 21.0366 4.95913 21.0784C5.22315 21.1208 5.51221 21.078 5.83796 20.9321C6.52272 20.6256 7.23834 19.9212 7.86485 19.0592C8.71617 17.888 10.5689 17.49 11.7467 18.6267L12.3517 19.2106C12.578 19.4291 12.9578 19.4291 13.1842 19.2106L14.2254 18.2057C14.233 18.1984 14.2354 18.1933 14.2363 18.1912C14.2369 18.1898 14.2373 18.1883 14.2376 18.1869C14.2378 18.1857 14.2379 18.1845 14.2379 18.1833C14.2379 18.1807 14.2374 18.178 14.2363 18.1754C14.2354 18.1733 14.233 18.1683 14.2254 18.1609L6.58959 10.7914C6.57557 10.7779 6.55264 10.7663 6.52043 10.7663Z" fill="white"></path>
</svg>